<?xml version="1.0" standalone="no"?><!DOCTYPE svg PUBLIC "-//W3C//DTD SVG 1.1//EN" "http://www.w3.org/Graphics/SVG/1.1/DTD/svg11.dtd"><svg t="1711168363730" class="icon" viewBox="0 0 1024 1024" version="1.1" xmlns="http://www.w3.org/2000/svg" p-id="77525" xmlns:xlink="http://www.w3.org/1999/xlink" width="256" height="256"><path d="M512.121905 48.493714C770.169905 48.249905 902.095238 215.113143 902.095238 438.857143c0 71.826286-12.897524 117.711238-43.349333 173.299809l-29.988572 52.345905a424.643048 424.643048 0 0 0-43.617523 111.957333c-9.947429 41.130667-15.457524 93.354667-16.335239 156.476953a36.571429 36.571429 0 1 1-73.142857-0.999619c0.975238-68.193524 7.021714-125.68381 18.383238-172.665905a492.982857 492.982857 0 0 1 45.104762-119.783619l6.826667-12.55619 24.697905-42.910477c27.794286-48.90819 38.278095-83.577905 38.278095-145.16419 0-186.587429-103.448381-317.44-316.781714-317.220572-161.596952 0.170667-259.169524 106.447238-296.594286 331.776a36.571429 36.571429 0 0 1-3.169524 9.947429l-1.682286 3.072-66.145523 108.690286a12.190476 12.190476 0 0 0 8.216381 18.334476l2.194285 0.195048h24.502857a36.571429 36.571429 0 0 1 36.400762 33.03619l0.170667 3.535238-0.024381 138.361905H365.714286a60.952381 60.952381 0 0 1 60.830476 56.978286l0.121905 3.998476v102.887619a36.571429 36.571429 0 0 1-72.972191 3.510857l-0.170666-3.510857v-90.721524H203.897905a60.952381 60.952381 0 0 1-60.830476-56.929524l-0.121905-3.998476-0.024381-114.907429-1.755429-0.243809a85.357714 85.357714 0 0 1-71.363047-79.506286l-0.121905-4.681143a85.333333 85.333333 0 0 1 9.557333-39.253333l2.876953-5.12 62.537142-102.765714 0.633905-3.705905c43.812571-246.857143 164.425143-378.148571 358.351238-382.049524l8.484572-0.073143zM457.386667 342.79619c9.094095 0 16.335238 2.023619 21.699047 6.095239 5.36381 4.071619 8.850286 8.704 10.48381 13.897142l101.424762 294.034286 1.121524 3.998476c2.486857 10.313143 1.048381 18.017524-4.291048 23.064381-6.022095 5.680762-14.06781 8.533333-24.137143 8.533334-10.069333 0.316952-17.554286-1.877333-22.430476-6.582858a47.786667 47.786667 0 0 1-11.215238-16.822857l-23.405715-58.514285h-98.986666l-21.455238 56.07619-1.901715 4.486095c-2.681905 5.753905-6.119619 10.50819-10.288761 14.287238-5.193143 4.705524-12.848762 7.070476-22.918096 7.070477-10.069333 0-18.115048-2.755048-24.137143-8.289524-6.022095-5.534476-6.753524-14.945524-2.194285-28.281905l100.449524-293.059048 1.219047-3.047619a29.988571 29.988571 0 0 1 9.264762-10.849523c5.36381-4.071619 12.604952-6.095238 21.699048-6.095239z m203.337143 0c10.410667 0 18.358857 2.267429 23.893333 6.826667 5.534476 4.559238 8.289524 12.507429 8.289524 23.893333v287.695239l-0.146286 4.291047c-0.633905 8.289524-3.096381 14.652952-7.41181 19.114667-5.046857 5.193143-13.238857 7.801905-24.624761 7.801905-11.385905 0-19.431619-2.608762-24.137143-7.801905-4.705524-5.193143-7.070476-12.848762-7.070477-22.918095v-287.695238l0.121905-3.779048c1.219048-18.285714 11.580952-27.428571 31.085715-27.428572z m-203.337143 91.672381l-37.546667 120.929524h75.093333l-37.546666-120.929524z" fill="#000000" p-id="77526"></path></svg>