<?xml version="1.0" standalone="no"?>
<!DOCTYPE svg PUBLIC "-//W3C//DTD SVG 20010904//EN"
 "http://www.w3.org/TR/2001/REC-SVG-20010904/DTD/svg10.dtd">
<svg version="1.0" xmlns="http://www.w3.org/2000/svg"
 width="200.000000pt" height="200.000000pt" viewBox="0 0 200.000000 200.000000"
 preserveAspectRatio="xMidYMid meet">

<g transform="translate(0.000000,200.000000) scale(0.100000,-0.100000)"
fill="#000000" stroke="none">
<path d="M877 1988 c-87 -9 -245 -57 -322 -96 -178 -89 -358 -269 -448 -447
-78 -155 -116 -372 -97 -547 12 -107 55 -258 97 -343 68 -135 211 -296 338
-382 190 -128 432 -188 657 -163 232 26 422 115 590 278 128 123 202 244 256
412 62 195 62 405 0 600 -54 168 -128 289 -256 412 -167 161 -357 252 -584
277 -108 12 -120 12 -231 -1z m-60 -174 c22 -22 25 -32 21 -73 -3 -27 -15 -69
-27 -95 -22 -44 -25 -46 -64 -46 -54 0 -115 17 -149 42 -22 15 -28 27 -28 58
0 48 32 75 81 68 25 -4 32 -1 39 18 11 28 48 54 78 54 12 0 34 -12 49 -26z
m205 -274 c44 -44 36 -75 -72 -275 -152 -280 -171 -322 -157 -333 7 -6 17 -8
23 -4 6 4 46 74 90 156 67 127 83 151 111 163 18 7 44 11 58 7 30 -7 65 -53
65 -84 0 -12 -37 -91 -81 -177 -57 -108 -78 -158 -71 -165 21 -21 41 4 116
146 42 80 87 152 99 161 31 22 72 19 101 -7 48 -43 45 -62 -43 -231 -45 -86
-81 -161 -81 -167 0 -6 9 -10 21 -8 15 2 40 39 94 137 40 74 81 140 91 148 50
37 134 -4 134 -66 0 -38 -192 -428 -237 -481 -18 -21 -56 -52 -83 -69 -36 -22
-56 -44 -76 -83 -49 -96 -62 -108 -117 -108 -69 0 -281 76 -300 107 -3 5 4 35
14 68 24 77 19 97 -30 120 -53 24 -84 58 -117 130 -41 88 -44 165 -9 263 33
92 62 151 212 427 63 115 126 220 139 233 35 31 70 28 106 -8z m-266 -85 l35
-14 -35 -68 c-60 -118 -55 -116 -114 -38 -29 37 -52 76 -52 86 0 42 98 63 166
34z"/>
</g>
</svg>
