<?xml version="1.0" standalone="no"?>
<!DOCTYPE svg PUBLIC "-//W3C//DTD SVG 20010904//EN"
 "http://www.w3.org/TR/2001/REC-SVG-20010904/DTD/svg10.dtd">
<svg version="1.0" xmlns="http://www.w3.org/2000/svg"
 width="200.000000pt" height="200.000000pt" viewBox="0 0 200.000000 200.000000"
 preserveAspectRatio="xMidYMid meet">

<g transform="translate(0.000000,200.000000) scale(0.100000,-0.100000)"
fill="#000000" stroke="none">
<path d="M470 1813 c-179 -21 -339 -162 -385 -338 -23 -89 -22 -807 1 -886 25
-83 79 -156 148 -201 113 -73 102 -71 676 -78 l515 -6 234 -52 c235 -52 271
-58 271 -44 0 4 -21 101 -47 217 l-46 210 -7 400 c-6 341 -9 408 -24 455 -46
143 -147 248 -291 302 -59 22 -70 22 -535 24 -261 1 -491 0 -510 -3z m1063
-61 c92 -38 169 -108 211 -194 20 -40 41 -97 46 -127 6 -29 10 -208 10 -395
l0 -342 45 -219 c25 -120 44 -224 43 -230 -2 -8 -83 5 -258 41 l-255 54 -457
0 c-293 0 -476 4 -510 11 -133 28 -236 107 -280 218 -22 55 -23 64 -23 446 0
300 3 403 14 445 37 147 137 255 278 301 54 17 93 18 568 16 509 -2 510 -2
568 -25z"/>
<path d="M356 1472 c-19 -31 11 -32 585 -30 502 3 574 5 574 18 0 13 -72 15
-577 18 -317 1 -579 -1 -582 -6z"/>
<path d="M360 1085 c-10 -12 -10 -16 1 -20 8 -3 270 -4 584 -3 499 3 570 5
570 18 0 13 -71 15 -571 18 -497 2 -573 0 -584 -13z"/>
<path d="M385 750 c-17 -27 17 -30 323 -30 309 0 369 6 332 30 -20 13 -647 13
-655 0z"/>
</g>
</svg>
