<?xml version="1.0" standalone="no"?>
<!DOCTYPE svg PUBLIC "-//W3C//DTD SVG 20010904//EN"
 "http://www.w3.org/TR/2001/REC-SVG-20010904/DTD/svg10.dtd">
<svg version="1.0" xmlns="http://www.w3.org/2000/svg"
 width="200.000000pt" height="200.000000pt" viewBox="0 0 200.000000 200.000000"
 preserveAspectRatio="xMidYMid meet">

<g transform="translate(0.000000,200.000000) scale(0.100000,-0.100000)"
fill="#000000" stroke="none">
<path d="M134 1745 c-13 -33 4 -45 64 -45 36 0 63 -5 69 -12 5 -7 51 -246 101
-531 51 -284 97 -529 102 -543 20 -53 36 -54 582 -54 277 0 509 4 516 9 8 4
12 19 10 32 l-3 24 -525 5 -525 5 -3 33 -3 32 521 0 c553 0 566 1 585 47 4 10
63 184 130 386 106 316 122 373 114 400 -9 31 -25 46 -64 59 -11 3 -343 6
-737 7 l-717 1 -7 52 c-5 38 -15 60 -35 80 -25 25 -34 28 -99 28 -54 0 -72 -4
-76 -15z m1672 -228 c8 -22 -234 -744 -252 -751 -9 -3 -247 -6 -530 -6 l-514
0 -5 23 c-8 35 -105 578 -105 588 0 5 166 9 398 9 281 0 401 3 409 11 12 12 6
39 -11 51 -6 4 -192 8 -412 8 l-402 0 -6 23 c-3 12 -6 30 -6 40 0 16 41 17
715 17 580 0 717 -2 721 -13z"/>
<path d="M1306 1437 c-10 -7 -16 -22 -14 -33 3 -16 12 -19 68 -19 56 0 65 3
68 19 5 26 -24 46 -68 46 -20 0 -44 -6 -54 -13z"/>
<path d="M675 484 c-89 -46 -118 -130 -75 -219 51 -106 201 -113 267 -14 53
80 24 187 -63 229 -49 24 -89 25 -129 4z m119 -83 c45 -40 37 -109 -16 -137
-80 -41 -157 45 -109 123 28 45 83 51 125 14z"/>
<path d="M1205 484 c-65 -34 -95 -79 -95 -145 0 -155 202 -217 287 -88 53 80
24 187 -63 229 -49 24 -89 25 -129 4z m123 -87 c14 -13 22 -32 22 -53 0 -46
-9 -63 -42 -80 -80 -41 -157 45 -109 123 29 47 84 51 129 10z"/>
</g>
</svg>
