<?xml version="1.0" standalone="no"?><!DOCTYPE svg PUBLIC "-//W3C//DTD SVG 1.1//EN" "http://www.w3.org/Graphics/SVG/1.1/DTD/svg11.dtd"><svg t="1711166528764" class="icon" viewBox="0 0 1024 1024" version="1.1" xmlns="http://www.w3.org/2000/svg" p-id="58931" width="256" height="256" xmlns:xlink="http://www.w3.org/1999/xlink"><path d="M840.467692 937.353846H183.532308c-17.329231 0-31.507692-14.178462-31.507693-31.507692V315.076923c0-53.563077 43.323077-96.886154 96.886154-96.886154h525.390769c53.563077 0 96.886154 43.323077 96.886154 96.886154v590.769231c0.787692 17.329231-13.390769 31.507692-30.72 31.507692z m-625.427692-63.015384h593.132308V315.076923c0-18.904615-14.966154-33.870769-33.87077-33.870769H249.698462c-18.904615 0-33.870769 14.966154-33.87077 33.870769v559.261539z" fill="#7F7F7F" p-id="58932"></path><path d="M804.233846 446.621538H219.766154c-19.692308 0-36.233846-16.541538-36.233846-36.233846V285.144615c0-19.692308 16.541538-36.233846 36.233846-36.233846h584.467692c19.692308 0 36.233846 16.541538 36.233846 36.233846v125.243077c0 19.692308-16.541538 36.233846-36.233846 36.233846z" fill="#BFBFBF" p-id="58933"></path><path d="M804.233846 478.129231H219.766154c-37.021538 0-67.741538-29.932308-67.741539-67.741539V285.144615c0-37.021538 29.932308-67.741538 67.741539-67.741538h584.467692c37.021538 0 67.741538 29.932308 67.741539 67.741538v125.243077c0 37.021538-30.72 67.741538-67.741539 67.741539z m-584.467692-196.923077c-2.363077 0-4.726154 2.363077-4.726154 4.726154v125.243077c0 2.363077 2.363077 4.726154 4.726154 4.726153h584.467692c2.363077 0 4.726154-2.363077 4.726154-4.726153v-126.03077c0-2.363077-2.363077-4.726154-4.726154-4.726153H219.766154z" fill="#7F7F7F" p-id="58934"></path><path d="M686.08 281.206154H337.92c-29.932308 0-54.350769-24.418462-54.350769-54.350769V140.996923c0-29.932308 24.418462-54.350769 54.350769-54.350769h348.16c29.932308 0 54.350769 24.418462 54.350769 54.350769v85.858462c0 29.932308-24.418462 54.350769-54.350769 54.350769z m-339.495385-63.015385h330.83077V149.661538H346.584615v68.529231z" fill="#7F7F7F" p-id="58935"></path><path d="M559.261538 512H464.738462c-10.24 0-18.904615-8.664615-18.904616-18.904615V267.815385c0-10.24 8.664615-18.904615 18.904616-18.904616h94.523076c10.24 0 18.904615 8.664615 18.904616 18.904616v225.28c-0.787692 10.24-8.664615 18.904615-18.904616 18.904615z" fill="#BFBFBF" p-id="58936"></path><path d="M559.261538 543.507692H464.738462c-27.569231 0-50.412308-22.843077-50.412308-50.412307V267.815385c0-27.569231 22.843077-50.412308 50.412308-50.412308h94.523076c27.569231 0 50.412308 22.843077 50.412308 50.412308v225.28c-0.787692 27.569231-22.843077 50.412308-50.412308 50.412307z m-81.132307-63.015384h68.529231V281.206154h-68.529231V480.492308z" fill="#7F7F7F" p-id="58937"></path><path d="M676.627692 937.353846H347.372308c-35.446154 0-63.803077-28.356923-63.803077-63.803077V675.052308c0-35.446154 28.356923-63.803077 63.803077-63.803077h329.255384c35.446154 0 63.803077 28.356923 63.803077 63.803077v198.498461c0 35.446154-28.356923 63.803077-63.803077 63.803077zM347.372308 675.052308c-0.787692 0-0.787692 0 0 0l-0.787693 198.498461s0 0.787692 0.787693 0.787693h329.255384s0.787692 0 0.787693-0.787693V675.052308s0-0.787692-0.787693-0.787693H347.372308z" fill="#7F7F7F" p-id="58938"></path></svg>