<?xml version="1.0" standalone="no"?>
<!DOCTYPE svg PUBLIC "-//W3C//DTD SVG 20010904//EN"
 "http://www.w3.org/TR/2001/REC-SVG-20010904/DTD/svg10.dtd">
<svg version="1.0" xmlns="http://www.w3.org/2000/svg"
 width="200.000000pt" height="200.000000pt" viewBox="0 0 200.000000 200.000000"
 preserveAspectRatio="xMidYMid meet">

<g transform="translate(0.000000,200.000000) scale(0.100000,-0.100000)"
fill="#000000" stroke="none">
<path d="M191 1904 c-64 -32 -105 -86 -120 -155 -18 -80 -14 -455 4 -517 20
-66 66 -119 130 -148 49 -23 55 -24 388 -24 l337 0 0 344 c0 218 -4 355 -11
373 -21 56 -61 102 -112 128 -51 25 -53 25 -307 25 l-256 0 -53 -26z"/>
<path d="M1204 1916 c-47 -21 -105 -77 -125 -121 -17 -36 -19 -73 -19 -387 l0
-348 340 0 c369 0 373 0 447 57 20 15 47 50 59 78 23 48 24 59 24 305 0 225
-3 260 -19 295 -20 46 -79 101 -127 121 -47 20 -535 19 -580 0z"/>
<path d="M222 921 c-61 -21 -104 -58 -135 -116 -21 -38 -22 -53 -22 -305 l0
-265 31 -55 c26 -46 41 -60 94 -88 l64 -33 256 3 257 3 49 30 c27 17 62 51 79
75 l30 45 3 363 3 362 -328 0 c-291 -1 -334 -3 -381 -19z"/>
<path d="M1062 578 c3 -359 3 -363 26 -400 26 -42 76 -82 127 -104 50 -21 510
-21 560 0 60 25 107 69 131 121 23 48 24 59 24 305 0 226 -3 259 -19 295 -24
52 -58 88 -112 117 -43 23 -49 23 -392 26 l-348 3 3 -363z"/>
</g>
</svg>
